<svg width="16" height="16" viewBox="0 0 16 16" fill="none" xmlns="http://www.w3.org/2000/svg">
<path fill-rule="evenodd" clip-rule="evenodd" d="M8.01665 0.5C6.13457 0.5 4.41957 1.12167 3.40499 1.62958C3.31332 1.67542 3.2279 1.72042 3.14832 1.76375C2.99082 1.84958 2.85665 1.92958 2.74999 2L3.90415 3.69917L4.44749 3.91542C6.57082 4.98667 9.41832 4.98667 11.5421 3.91542L12.1587 3.59542L13.2504 2C13.0242 1.8525 12.7891 1.71932 12.5462 1.60125C11.5371 1.09875 9.86332 0.5 8.01665 0.5ZM5.33207 2.42333C4.92337 2.34685 4.51971 2.24555 4.12332 2.12C5.07374 1.69792 6.4904 1.25 8.01624 1.25C9.07332 1.25 10.0729 1.465 10.8996 1.7375C9.93082 1.87375 8.89707 2.105 7.91207 2.38958C7.13707 2.61375 6.23124 2.58958 5.33207 2.42333ZM11.9821 4.53333L11.88 4.585C9.54374 5.76333 6.4454 5.76333 4.10915 4.585L4.01249 4.53583C0.503321 8.38625 -2.17585 15.4988 8.01665 15.4988C18.2083 15.4988 15.4637 8.25333 11.9821 4.53333ZM7.58332 8C7.36231 8 7.15035 8.0878 6.99407 8.24408C6.83779 8.40036 6.74999 8.61232 6.74999 8.83333C6.74999 9.05435 6.83779 9.26631 6.99407 9.42259C7.15035 9.57887 7.36231 9.66667 7.58332 9.66667V8ZM8.41665 7.16667V6.75H7.58332V7.16667C7.14129 7.16667 6.71737 7.34226 6.40481 7.65482C6.09225 7.96738 5.91665 8.39131 5.91665 8.83333C5.91665 9.27536 6.09225 9.69928 6.40481 10.0118C6.71737 10.3244 7.14129 10.5 7.58332 10.5V12.1667C7.41098 12.1667 7.24287 12.1133 7.10213 12.0138C6.9614 11.9144 6.85496 11.7737 6.79749 11.6112C6.76069 11.507 6.684 11.4217 6.58429 11.3741C6.48459 11.3264 6.37003 11.3203 6.26582 11.3571C6.16161 11.3939 6.07629 11.4706 6.02863 11.5703C5.98096 11.67 5.97486 11.7845 6.01165 11.8888C6.12659 12.2137 6.33944 12.4951 6.62091 12.6941C6.90237 12.8931 7.23861 13 7.58332 13V13.4167H8.41665V13C8.85868 13 9.28261 12.8244 9.59517 12.5118C9.90773 12.1993 10.0833 11.7754 10.0833 11.3333C10.0833 10.8913 9.90773 10.4674 9.59517 10.1548C9.28261 9.84226 8.85868 9.66667 8.41665 9.66667V8C8.77915 8 9.0879 8.23125 9.2029 8.55542C9.21997 8.60845 9.24749 8.65753 9.28385 8.69974C9.32021 8.74195 9.36467 8.77644 9.41459 8.80117C9.46451 8.82591 9.51888 8.84037 9.5745 8.84372C9.63011 8.84707 9.68583 8.83924 9.73836 8.82068C9.79089 8.80212 9.83916 8.77321 9.88032 8.73567C9.92149 8.69813 9.95471 8.65271 9.97801 8.60211C10.0013 8.55151 10.0142 8.49674 10.016 8.44106C10.0178 8.38537 10.0084 8.3299 9.98832 8.27792C9.87339 7.95293 9.66054 7.67156 9.37907 7.47255C9.0976 7.27354 8.76137 7.16667 8.41665 7.16667ZM8.41665 10.5V12.1667C8.63767 12.1667 8.84963 12.0789 9.00591 11.9226C9.16219 11.7663 9.24999 11.5543 9.24999 11.3333C9.24999 11.1123 9.16219 10.9004 9.00591 10.7441C8.84963 10.5878 8.63767 10.5 8.41665 10.5Z" fill="#595959"/>
</svg>
